<?xml version="1.0" encoding="utf-8" ?><svg xmlns="http://www.w3.org/2000/svg" xmlns:xlink="http://www.w3.org/1999/xlink" width="180" height="193" viewBox="0 0 180 193"><clipPath id="cl_3"><rect x="-4.5776367e-05" y="-1.9073486e-06" width="179.99998" height="193"/></clipPath><g clip-path="url(#cl_3)"><path fill="#FCFCFB" transform="matrix(0.610169 0 0 0.612698 -117.763 -12.8667)" d="M362.084 334.879C350.639 336.768 326.733 336.762 315.403 334.879C276.931 328.468 242.646 306.87 220.247 274.934C195.496 240.272 188.803 195.469 200.344 154.728C210.328 119.416 233.613 89.3514 265.301 70.8568C271.021 67.4507 277.158 64.5286 283.294 61.9459C285.675 60.944 288.546 60.4126 290.764 59.1536C296.03 56.1648 294.319 47.6841 301.297 45.4824C307.904 43.3975 336.171 45.23 337.959 43.7264C338.303 43.4366 338.195 43.0604 338.211 42.6347C335.347 39.4257 315.528 43.1511 315.546 40.3255C315.587 33.8459 313.562 25.1623 321.55 22.9475C331.718 20.128 344.801 19.6124 354.744 23.5459C363.193 26.9498 361.049 38.5511 361.367 45.7452C361.529 48.8523 360.19 51.8593 363.64 53.1464C363.61 50.5741 363.466 46.908 363.659 44.4303C376.147 42.957 381.977 44.8319 384.193 58.3877C395.577 62.4103 405.49 66.6058 415.747 73.0131C472.173 108.261 497.294 181.145 473.582 243.489C456.859 287.456 424.733 314.954 381.183 330.516C376.648 332.023 366.834 334.344 362.084 334.879Z"/><path fill="#376E9D" transform="matrix(0.610169 0 0 0.612698 -117.763 -12.8667)" d="M362.084 334.879C350.639 336.768 326.733 336.762 315.403 334.879C276.931 328.468 242.646 306.87 220.247 274.934C195.496 240.272 188.803 195.469 200.344 154.728C210.328 119.416 233.613 89.3514 265.301 70.8568C271.021 67.4507 277.158 64.5286 283.294 61.9459C285.675 60.944 288.546 60.4126 290.764 59.1536C296.03 56.1648 294.319 47.6841 301.297 45.4824C307.904 43.3975 336.171 45.23 337.959 43.7264C338.303 43.4366 338.195 43.0604 338.211 42.6347C335.347 39.4257 315.528 43.1511 315.546 40.3255C315.587 33.8459 313.562 25.1623 321.55 22.9475C331.718 20.128 344.801 19.6124 354.744 23.5459C363.193 26.9498 361.049 38.5511 361.367 45.7452C361.529 48.8523 360.19 51.8593 363.64 53.1464L363.725 53.5769C361.191 53.7084 360.998 53.6594 360.121 56.5416C358.933 60.9519 355.466 64.3925 350.747 64.7697C341.53 65.5066 330.75 63.8314 321.705 65.4186C311.635 67.1855 312.795 81.7648 312.756 88.9366C303.453 89.0194 298.158 89.9657 294.395 79.7487C289.094 81.1714 284.623 83.6004 279.827 86.1616C226.595 114.589 202.296 178.226 224.222 234.745C234.198 260.447 252.709 281.935 276.649 295.602C293.618 305.349 313.218 311.774 332.875 312.181C339.984 312.328 347.086 312.029 354.189 311.812C360.672 310.931 365.565 308.888 372.199 308.237C398.888 314.528 380.7 328.905 381.183 330.516C376.648 332.023 366.834 334.344 362.084 334.879Z"/><path fill="#FCCF41" transform="matrix(0.610169 0 0 0.612698 -117.763 -12.8667)" d="M372.199 308.237C398.888 314.528 380.7 328.905 381.183 330.516C376.648 332.023 366.834 334.344 362.084 334.879C361.71 334.487 361.381 333.599 361.149 333.072C355.016 331.981 354.52 330.613 349.731 327.075C346.333 326.963 342.027 327.271 338.63 327.596C329.368 328.483 298.2 326.044 291.742 320.023C290.558 317.819 291.228 314.309 293.514 313.093C296.329 311.595 299.682 313.488 302.492 314.312C308.158 315.974 313.801 317.875 319.559 319.202C323.499 319.924 327.307 320.354 331.321 320.765C336.638 321.31 343.255 322.256 348.496 321.021C350.119 320.638 353.204 315.931 354.673 314.77C355.901 313.801 356.906 313.289 358.307 312.578C357.286 311.233 356.693 312.941 354.189 311.812C360.672 310.931 365.565 308.888 372.199 308.237Z"/><path fill="#175A8F" transform="matrix(0.610169 0 0 0.612698 -117.763 -12.8667)" d="M372.199 308.237C398.888 314.528 380.7 328.905 381.183 330.516C376.648 332.023 366.834 334.344 362.084 334.879C361.71 334.487 361.381 333.599 361.149 333.072C368.47 333.22 376.875 330.078 381.465 324.218C383.553 321.553 383.177 319.507 382.634 316.473C381.699 315.833 380.748 315.215 379.783 314.62C374.211 311.251 364.48 311.073 358.307 312.578C357.286 311.233 356.693 312.941 354.189 311.812C360.672 310.931 365.565 308.888 372.199 308.237Z"/><path fill="#FCFCFB" transform="matrix(0.610169 0 0 0.612698 -117.763 -12.8667)" d="M325.895 27.4903C330.715 28.9564 330.353 33.4508 325.908 35.7007C324.107 35.2082 322.711 34.4806 322.089 32.5714C321.773 31.5767 321.903 30.4939 322.445 29.6021C323.289 28.2329 324.449 27.8786 325.895 27.4903Z"/><path fill="#FCCF41" transform="matrix(0.610169 0 0 0.612698 -117.763 -12.8667)" d="M363.659 44.4303C376.147 42.957 381.977 44.8319 384.193 58.3877C395.577 62.4103 405.49 66.6058 415.747 73.0131C472.173 108.261 497.294 181.145 473.582 243.489C456.859 287.456 424.733 314.954 381.183 330.516C380.7 328.905 398.888 314.528 372.199 308.237C375.421 306.147 382.143 304.565 385.929 302.933C395.761 298.693 403.856 294.063 412.385 287.666C432.839 272.607 447.942 251.401 455.487 227.145C464.835 196.617 461.625 163.621 446.569 135.468C435.513 115.029 418.82 98.1966 398.476 86.9728C393.585 84.2338 388.335 81.4584 382.962 79.8492C376.862 91.7113 369.477 88.1272 358.38 88.6187C352.918 88.8607 344.184 87.8474 339.133 88.6423C338.569 89.1394 338.475 89.0312 338.475 89.8437C338.476 93.0289 342.775 91.8649 344.912 91.8544L361.176 91.7941C361.108 94.9225 361.479 102.801 359.776 105.357C354.489 113.291 340.401 112.192 332.163 111.874C326.277 111.648 318.344 108.792 316.382 102.652C315.163 98.7668 316.247 92.933 315.949 89.2097C314.063 65.5621 325.043 67.5594 343.429 67.8416C350.895 67.9561 358.528 68.381 362.259 61.5475C363.218 59.7912 364.332 55.5028 363.725 53.5769L363.64 53.1464C363.61 50.5741 363.466 46.908 363.659 44.4303Z"/><path fill="#FCFCFB" transform="matrix(0.610169 0 0 0.612698 -117.763 -12.8667)" d="M350.229 97.517C355.663 97.5493 357.459 102.788 352.39 104.642C347.541 104.986 345.3 100.699 350.229 97.517Z"/><path fill="#DEAE31" transform="matrix(0.610169 0 0 0.612698 -117.763 -12.8667)" d="M294.606 150.85C293.715 149.951 293.553 149.819 293.229 148.567C294.188 145.28 302.577 146.347 305.582 146.422C308.577 146.357 315.039 145.754 317.128 147.475C317.681 148.703 317.583 148.157 317.363 149.617C316.637 150.55 316.506 150.513 315.138 150.862C315.231 151.244 315.385 151.967 315.505 152.307C314.513 155.827 312.698 154.918 312.139 160.092C312.746 161.008 312.423 160.814 313.319 161.039C319.391 161.052 325.463 161.017 331.534 160.934L345.357 160.972L364.918 160.976C368.094 160.968 375.68 160.703 378.473 160.944L386.917 160.963L386.954 208.742C386.951 214.828 387.313 228.562 386.557 233.945C386.069 246.5 376.942 259.922 366.956 267.102C361.374 271.356 350.404 275.814 343.491 276.107C341.667 276.471 339.697 276.491 337.832 276.443C316.883 275.905 297.65 261.385 291.727 241.246C289.287 232.952 289.762 222.948 289.768 214.479C289.735 206.356 289.78 198.232 289.903 190.11C289.63 187.192 289.756 182.766 289.76 179.74L289.865 160.928C292.64 161.089 296.051 160.999 298.877 160.993C298.816 156.104 297.341 156.298 295.193 152.474C295.148 152.264 294.706 151.12 294.606 150.85Z"/><path fill="#376E9D" transform="matrix(0.610169 0 0 0.612698 -117.763 -12.8667)" d="M289.903 190.11C291.826 192.886 305.732 206.408 308.851 209.412C319.229 219.404 329.342 230.342 339.652 240.249C345.401 245.86 351.088 251.535 356.713 257.271C359.226 259.82 364.28 265.224 366.956 267.102C361.374 271.356 350.404 275.814 343.491 276.107C341.667 276.471 339.697 276.491 337.832 276.443C316.883 275.905 297.65 261.385 291.727 241.246C289.287 232.952 289.762 222.948 289.768 214.479C289.735 206.356 289.78 198.232 289.903 190.11Z"/><path fill="#175A8F" transform="matrix(0.610169 0 0 0.612698 -117.763 -12.8667)" d="M339.652 240.249C345.401 245.86 351.088 251.535 356.713 257.271C359.226 259.82 364.28 265.224 366.956 267.102C361.374 271.356 350.404 275.814 343.491 276.107C342.164 275.954 339.964 276.028 338.565 276.033C338.477 270.255 337.778 243.993 339.652 240.249Z"/><path fill="#175A8F" transform="matrix(0.610169 0 0 0.612698 -117.763 -12.8667)" d="M364.918 160.976C368.094 160.968 375.68 160.703 378.473 160.944L386.917 160.963L386.954 208.742C386.951 214.828 387.313 228.562 386.557 233.945C385.428 233.149 381.964 229.513 380.789 228.327L369.257 216.734C358.171 205.761 347.147 194.724 336.188 183.625C328.842 176.226 320.967 168.018 313.319 161.039C319.391 161.052 325.463 161.017 331.534 160.934L345.357 160.972L364.918 160.976Z"/><path fill="#FCCF41" transform="matrix(0.610169 0 0 0.612698 -117.763 -12.8667)" d="M294.606 150.85C293.715 149.951 293.553 149.819 293.229 148.567C294.188 145.28 302.577 146.347 305.582 146.422C308.577 146.357 315.039 145.754 317.128 147.475C317.681 148.703 317.583 148.157 317.363 149.617C316.637 150.55 316.506 150.513 315.138 150.862C315.231 151.244 315.385 151.967 315.505 152.307C313.44 151.951 311.269 151.963 309.167 151.909C307.599 152.017 306.947 151.801 305.812 152.598C305.547 153.741 305.634 154.403 305.696 155.568C305.599 157.501 305.553 159.436 305.557 161.371C304.017 161.207 299.714 161.144 298.877 160.993C298.816 156.104 297.341 156.298 295.193 152.474C295.148 152.264 294.706 151.12 294.606 150.85Z"/><path fill="#FCCF41" transform="matrix(0.610169 0 0 0.612698 -117.763 -12.8667)" d="M294.606 150.85C293.715 149.951 293.553 149.819 293.229 148.567C294.188 145.28 302.577 146.347 305.582 146.422C305.524 147.853 305.44 149.333 305.479 150.76L294.606 150.85Z"/><path fill="#DEAE31" transform="matrix(0.610169 0 0 0.612698 -117.763 -12.8667)" d="M305.582 146.422C308.577 146.357 315.039 145.754 317.128 147.475C317.681 148.703 317.583 148.157 317.363 149.617C316.637 150.55 316.506 150.513 315.138 150.862C312.459 150.563 308.278 150.72 305.479 150.76C305.44 149.333 305.524 147.853 305.582 146.422Z"/><path fill="#FBECA2" transform="matrix(0.610169 0 0 0.612698 -117.763 -12.8667)" d="M305.479 150.76C308.278 150.72 312.459 150.563 315.138 150.862C315.231 151.244 315.385 151.967 315.505 152.307C313.44 151.951 311.269 151.963 309.167 151.909C306.342 151.85 297.239 151.148 295.193 152.474C295.148 152.264 294.706 151.12 294.606 150.85L305.479 150.76Z"/><path fill="#0C723C" transform="matrix(0.610169 0 0 0.612698 -117.763 -12.8667)" d="M306.753 175.283C310.943 175.15 311.403 176.432 313.957 179.437C316.123 176.92 317.738 175.285 321.472 175.415C322.424 175.448 322.512 175.596 323.022 176.241L322.761 177.051C321.766 178.178 319.979 178.746 318.55 179.338C320.898 179.616 326.184 181.07 326.963 183.566C325.733 184.466 320.492 183.481 318.42 183.291C320.577 184.762 321.513 185.446 323.406 187.232C323.602 188.472 324.396 191.36 323.239 192.03C321.008 191.108 319.966 188.248 315.279 186.13C315.237 190.165 315.534 194.27 315.768 198.304C316.062 200.869 316.257 203.705 316.49 206.299L311.628 206.274C311.648 199.383 312.174 192.837 312.63 185.962C310.509 187.181 305.62 192.07 304.316 191.889C302.481 188.26 306.392 185.6 308.7 183.695C306.231 183.661 302.827 184.663 301.518 183.809C302.285 180.656 307.42 179.778 310.102 179.604C308.382 178.878 305.308 177.924 304.491 176.436C305.085 175.552 305.512 175.674 306.753 175.283Z"/><path fill="#0C723C" transform="matrix(0.610169 0 0 0.612698 -117.763 -12.8667)" d="M338.323 202.963C340.679 200.723 343.28 198.445 346.821 199.673L347.231 200.279C346.535 202.245 344.596 202.517 342.753 203.211C347.321 203.67 349.117 204.32 352.208 208.084C349.241 207.887 346.638 207.583 343.684 207.205C346.009 209.261 350.443 213.748 347.76 216.862L347.277 216.913L347.145 216.627C346.133 214.468 342.778 211.024 340.614 210.06C340.184 210.075 339.918 210.044 339.515 210.174C339.378 215.568 340.538 224.54 341.117 230.201C339.426 230.197 337.545 230.087 335.84 230.026C335.972 224.56 337.475 214.194 337.106 209.845C334.419 209.888 330.296 216.778 328.461 215.711C327.749 211.962 330.24 209.704 332.743 207.516C330.2 207.689 327.66 207.892 325.123 208.125C327.837 205.131 329.159 203.742 333.462 203.544C333.907 203.524 334.351 203.51 334.796 203.502C333.328 202.92 328.872 201.592 329.533 199.579C332.729 197.864 336.26 200.917 338.323 202.963Z"/><path fill="#0C723C" transform="matrix(0.610169 0 0 0.612698 -117.763 -12.8667)" d="M362.411 226.224C364.324 224.897 369.344 221.776 371.273 224.222L371.037 224.956C370.03 226.052 368.051 226.654 366.611 227.222C371.854 227.935 372.885 228.325 376.547 232.088C373.659 231.913 370.616 231.573 367.734 231.272C370.211 233.088 373.762 236.492 372.535 239.949C370.593 239.976 367 235.067 363.438 233.116C363.723 237.383 364.013 241.336 364.49 245.589L365.329 253.967C363.549 253.973 361.669 253.92 359.881 253.895C360.068 247.043 361.375 240.585 361.429 233.104C359.53 234.623 354.638 239.398 352.967 239.777L352.506 239.438C351.871 235.98 354.746 233.423 357.167 231.661C354.346 231.841 351.852 232.021 349.029 231.94C352.584 228.284 354.039 227.811 358.843 227.6C357.369 226.784 354.259 225.338 353.342 224.311L353.438 223.756L354.54 223.255C358.401 222.99 359.258 223.988 362.411 226.224Z"/><path fill="#376E9D" transform="matrix(0.610169 0 0 0.612698 -117.763 -12.8667)" d="M381.123 90.9203C383.563 90.5709 394.654 96.7963 396.898 98.1383C406.026 103.598 414.118 110.04 421.423 117.77C441.329 138.561 451.951 166.541 450.857 195.307C450.723 199.765 450.146 208.943 449.29 213.157C444.656 235.953 432.674 256.844 415.658 272.654C409.744 278.149 401.63 283.999 394.581 287.896C390.4 290.006 385.946 293.076 381.471 294.511C373.811 296.965 364.213 298.274 356.257 299.021C349.339 299.671 341.866 299.118 334.992 298.898C330.587 301.547 331.361 303.427 325.936 304.467C321.585 305.3 300.849 301.351 298.548 299.296L298.527 298.694C300.208 297.705 317.753 302.314 319.972 300.574L319.996 299.735C318.367 298.107 302.351 296.149 298.939 295.523L298.866 295.054C299.654 294.793 301.432 294.393 302.207 294.534C307.759 295.545 313.019 296.018 318.647 296.28C319.628 296.321 319.821 296.352 320.741 296.029L321.023 295.357C319.04 292.309 302.671 293.298 299.543 291.099L299.484 290.62C302.269 288.915 319.106 293.639 321.293 290.732C321.241 290.48 321.181 290.187 321.112 289.854C317.61 287.605 302.007 288.771 299.51 287.06C299.859 286.462 302.105 285.847 302.732 285.93C307.736 286.591 323.5 284.733 327.353 286.959C336.512 292.25 331.063 293.702 342.919 293.08C353.862 292.505 362.099 290.493 372.568 287.621C378.325 285.987 380.314 283.244 386.777 285.333C387.116 285.22 387.452 285.098 387.785 284.97C390.42 283.95 394.84 280.987 397.35 279.369C415.145 267.878 429.091 251.32 437.39 231.828C440.321 225.061 441.536 219.645 443.063 212.845C453.513 166.304 427.276 117.214 384.034 97.982C380.446 96.3862 376.962 95.2793 373.422 93.7486C376.183 92.8679 378.514 92.1837 381.123 90.9203Z"/><path fill="#376E9D" transform="matrix(0.610169 0 0 0.612698 -117.763 -12.8667)" d="M295.253 90.9629C295.394 90.9492 302.917 93.4212 303.931 93.6956C266.864 106.386 240.796 135.765 233.313 174.226C232.088 180.521 231.928 187.72 231.975 194.159C232.434 225.789 247.456 255.438 272.687 274.51C276.133 277.093 279.772 279.246 283.295 281.662C286.485 283.849 293.676 285.524 293.665 289.772L293.662 290.086C292.777 291.162 292.634 291.384 291.401 292.025C290.487 292.211 289.942 292.001 289.125 291.582C265.864 279.848 247.156 261.536 235.894 237.932C231.158 228.006 228.792 218.463 227.107 207.712C223.69 185.92 227.521 163.716 237.231 143.991C248.115 121.88 271.558 98.5906 295.253 90.9629Z"/><path fill="#E35120" transform="matrix(0.610169 0 0 0.612698 -117.763 -12.8667)" d="M366.227 130.636C367.325 125.272 368.534 124.199 372.727 120.498C373.337 119.96 373.694 119.84 374.359 119.935C376.142 123.134 372.297 126.842 378.221 132.702C378.773 131.004 379.929 127.927 381.969 127.862C382.839 128.903 383.114 133.982 383.175 135.498C383.392 140.923 381.064 144.219 375.596 144.348C373.009 144.183 369.877 144.305 367.29 144.552C355.822 143.504 359.388 132.56 364.278 126.173L366.227 130.636Z"/><path fill="#FCCF41" transform="matrix(0.610169 0 0 0.612698 -117.763 -12.8667)" d="M371.254 131.02C373.422 136.202 379.347 138.816 375.596 144.348C373.009 144.183 369.877 144.305 367.29 144.552C365.86 143.585 365.373 143.198 364.741 141.488C364.16 139.915 365.001 136.994 366.677 136.626C367.136 137.236 367.318 137.534 367.694 138.2C368.346 137.691 368.714 135.631 369.065 134.682C369.583 133.286 370.4 132.229 371.254 131.02Z"/><path fill="#E35120" transform="matrix(0.610169 0 0 0.612698 -117.763 -12.8667)" d="M332.586 131.043C333.936 127.495 337.54 120.347 341.703 119.638C341.951 119.903 342.323 120.278 342.15 120.671C340.156 125.198 342.411 128.813 344.974 133.258C345.817 131.526 346.654 129.381 348.202 128.284L348.758 128.461C349.072 129.126 350.572 135.805 350.862 137.09C349.36 141.471 347.748 143.94 342.901 144.446C339.84 144.413 337.05 144.41 333.993 144.534C324.024 143.89 325.881 132.027 331.343 126.58C331.714 127.948 332.142 129.732 332.586 131.043Z"/><path fill="#FCCF41" transform="matrix(0.610169 0 0 0.612698 -117.763 -12.8667)" d="M338.48 130.691C339.908 137.423 343.558 134.953 343.641 141.336C343.657 142.561 342.986 143.675 342.901 144.446C339.84 144.413 337.05 144.41 333.993 144.534C331.041 142.468 330.618 140.393 332.121 136.981L332.706 136.489C333.657 136.677 333.935 137.242 334.742 138.04C336.257 136.685 334.744 134.575 338.48 130.691Z"/><path fill="#E35120" transform="matrix(0.610169 0 0 0.612698 -117.763 -12.8667)" d="M309.105 118.988C306.875 126.007 308.721 127.008 311.914 132.978C312.606 131.665 313.875 128.918 315.22 128.469C315.798 128.965 317.016 135.093 317.588 136.914C316.802 139.473 316.174 141.03 314.528 143.252C312.65 144.013 311.558 144.556 309.506 144.453C306.433 144.308 303.167 144.583 300.083 144.333C291.086 142.686 293.212 130.317 298.16 126.814C299.068 127.32 299.236 129.119 299.434 130.155C301.975 124.888 303.984 122.196 309.105 118.988Z"/><path fill="#FCCF41" transform="matrix(0.610169 0 0 0.612698 -117.763 -12.8667)" d="M305.314 130.497C307.098 134.817 311.212 138.4 310.987 141.902C310.97 142.174 309.832 143.539 309.506 144.453C306.433 144.308 303.167 144.583 300.083 144.333L300.167 143.91C298.619 142.239 298.285 137.757 299.662 136.449C301.151 136.83 301.095 138.185 302.168 138.205C303.415 134.55 302.957 133.636 305.314 130.497Z"/><path fill="#DEAE31" transform="matrix(0.610169 0 0 0.612698 -117.763 -12.8667)" d="M360.42 150.793C359.369 149.64 358.993 148.282 360 147.013C362.704 145.608 368.097 146.249 371.211 146.441C374.202 146.415 380.803 145.906 382.942 147.293C383.624 148.425 383.657 149.864 382.499 150.668C381.871 151.048 381.698 151.008 381.414 151.553C382.166 153.099 381.816 153.187 380.613 154.405C378.388 156.656 378.404 157.945 378.473 160.944C375.68 160.703 368.094 160.968 364.918 160.976L364.846 160.752C364.715 160.516 364.626 160.359 364.57 160.085C363.953 157.083 363.051 155.207 361.411 152.676C361.072 151.958 360.831 151.471 360.42 150.793Z"/><path fill="#DEAE31" transform="matrix(0.610169 0 0 0.612698 -117.763 -12.8667)" d="M360.42 150.793C359.369 149.64 358.993 148.282 360 147.013C362.704 145.608 368.097 146.249 371.211 146.441C374.202 146.415 380.803 145.906 382.942 147.293C383.624 148.425 383.657 149.864 382.499 150.668C381.871 151.048 381.698 151.008 381.414 151.553C380.013 151.849 373.003 151.85 371.174 151.88C369.365 151.861 362.309 151.458 361.411 152.676C361.072 151.958 360.831 151.471 360.42 150.793Z"/><path fill="#FCCF41" transform="matrix(0.610169 0 0 0.612698 -117.763 -12.8667)" d="M360.42 150.793C359.369 149.64 358.993 148.282 360 147.013C362.704 145.608 368.097 146.249 371.211 146.441L371.18 150.754C367.53 150.665 364.063 150.724 360.42 150.793Z"/><path fill="#FBECA2" transform="matrix(0.610169 0 0 0.612698 -117.763 -12.8667)" d="M360.42 150.793C364.063 150.724 367.53 150.665 371.18 150.754C374.71 150.772 379.036 150.904 382.499 150.668C381.871 151.048 381.698 151.008 381.414 151.553C380.013 151.849 373.003 151.85 371.174 151.88C369.365 151.861 362.309 151.458 361.411 152.676C361.072 151.958 360.831 151.471 360.42 150.793Z"/><path fill="#FCCF41" transform="matrix(0.610169 0 0 0.612698 -117.763 -12.8667)" d="M361.411 152.676C362.309 151.458 369.365 151.861 371.174 151.88L371.148 160.623C369.491 160.642 366.393 160.595 364.846 160.752C364.715 160.516 364.626 160.359 364.57 160.085C363.953 157.083 363.051 155.207 361.411 152.676Z"/><path fill="#DEAE31" transform="matrix(0.610169 0 0 0.612698 -117.763 -12.8667)" d="M327.418 150.887C327.314 150.649 327.216 150.408 327.124 150.165C326.662 148.927 326.723 148.393 327.205 147.309C329.378 145.598 335.757 146.285 338.818 146.376C341.753 146.38 348.395 145.982 350.456 147.534C351.157 149.014 350.723 149.607 349.62 150.797C349.069 151.064 348.635 151.141 348.398 151.571C348.672 153.865 347.381 154.794 345.933 156.379C345.66 157.966 345.379 159.351 345.357 160.972L331.534 160.934L331.423 160.677L331.119 156.263C329.524 154.83 328.966 154.3 327.896 152.467C327.86 152.061 327.565 151.312 327.418 150.887Z"/><path fill="#DEAE31" transform="matrix(0.610169 0 0 0.612698 -117.763 -12.8667)" d="M327.418 150.887C327.314 150.649 327.216 150.408 327.124 150.165C326.662 148.927 326.723 148.393 327.205 147.309C329.378 145.598 335.757 146.285 338.818 146.376C341.753 146.38 348.395 145.982 350.456 147.534C351.157 149.014 350.723 149.607 349.62 150.797C349.069 151.064 348.635 151.141 348.398 151.571C345.372 151.924 341.755 151.938 338.667 152.028C335.622 151.977 330.318 151.313 327.896 152.467C327.86 152.061 327.565 151.312 327.418 150.887Z"/><path fill="#FCCF41" transform="matrix(0.610169 0 0 0.612698 -117.763 -12.8667)" d="M327.418 150.887C327.314 150.649 327.216 150.408 327.124 150.165C326.662 148.927 326.723 148.393 327.205 147.309C329.378 145.598 335.757 146.285 338.818 146.376C338.772 147.639 338.769 149.555 338.507 150.732C335.043 150.62 330.909 150.798 327.418 150.887Z"/><path fill="#FBECA2" transform="matrix(0.610169 0 0 0.612698 -117.763 -12.8667)" d="M327.418 150.887C330.909 150.798 335.043 150.62 338.507 150.732L349.62 150.797C349.069 151.064 348.635 151.141 348.398 151.571C345.372 151.924 341.755 151.938 338.667 152.028C335.622 151.977 330.318 151.313 327.896 152.467C327.86 152.061 327.565 151.312 327.418 150.887Z"/><path fill="#FCCF41" transform="matrix(0.610169 0 0 0.612698 -117.763 -12.8667)" d="M327.896 152.467C330.318 151.313 335.622 151.977 338.667 152.028C338.621 154.765 338.487 157.942 338.542 160.644C336.614 160.632 333.236 160.52 331.423 160.677L331.119 156.263C329.524 154.83 328.966 154.3 327.896 152.467Z"/></g></svg>